<svg width="25" height="24" viewBox="0 0 25 24" fill="none" xmlns="http://www.w3.org/2000/svg">
<g clip-path="url(#clip0)">
<path d="M17.1235 23.17C17.1435 23.164 17.1625 23.156 17.1825 23.149C29.3975 18.296 26.0185 0 12.7695 0C6.12053 0 0.769531 5.42 0.769531 12C0.769531 20.327 9.20353 26.269 17.1235 23.17ZM6.05053 20.059C6.90253 18.627 9.65953 14.587 14.3655 13.193C15.3495 15.702 16.0395 18.629 16.1075 21.948C12.5415 23.147 8.78053 22.34 6.05053 20.059ZM17.5825 21.322C17.4515 18.133 16.8005 15.305 15.8725 12.855C17.9545 12.53 20.3645 12.747 23.0975 13.842C22.5165 17.103 20.4315 19.844 17.5825 21.322ZM23.2545 12.291C20.2445 11.16 17.5915 11.019 15.2955 11.457C14.9405 10.657 14.5675 9.888 14.1725 9.18C17.6955 7.773 19.7775 6.058 20.7095 5.15C22.3545 7.054 23.3315 9.519 23.2545 12.291ZM19.6445 4.082C18.7965 4.889 16.7995 6.519 13.3845 7.852C11.7105 5.204 9.92053 3.336 8.78653 2.29C12.4145 0.796 16.5985 1.434 19.6445 4.082ZM7.35253 3.023C8.20853 3.776 10.0875 5.584 11.9005 8.38C9.41053 9.182 6.28853 9.771 2.49153 9.854C3.09553 6.96 4.89953 4.508 7.35253 3.023ZM2.30153 11.36C6.55153 11.291 9.99153 10.62 12.7105 9.712C13.0865 10.371 13.4435 11.089 13.7865 11.835C9.05153 13.343 6.09253 17.236 4.95953 18.994C3.13153 16.954 2.12353 14.292 2.30153 11.36Z" fill="#666666"/>
</g>
<defs>
<clipPath id="clip0">
<rect width="24" height="24" fill="white" transform="translate(0.769531)"/>
</clipPath>
</defs>
</svg>
