<svg width="25" height="24" viewBox="0 0 25 24" fill="none" xmlns="http://www.w3.org/2000/svg">
<g clip-path="url(#clip0)">
<path d="M12.3848 0.5C5.75477 0.5 0.384766 5.78 0.384766 12.292C0.384766 17.503 3.82277 21.922 8.58977 23.48C9.18977 23.591 9.40977 23.226 9.40977 22.913C9.40977 22.633 9.39977 21.891 9.39477 20.908C6.05677 21.619 5.35277 19.326 5.35277 19.326C4.80677 17.965 4.01777 17.601 4.01777 17.601C2.93077 16.87 4.10177 16.885 4.10177 16.885C5.30677 16.967 5.93977 18.1 5.93977 18.1C7.00977 19.903 8.74877 19.382 9.43477 19.081C9.54277 18.318 9.85177 17.799 10.1948 17.504C7.52977 17.209 4.72877 16.195 4.72877 11.677C4.72877 10.39 5.19377 9.338 5.96377 8.513C5.82877 8.215 5.42377 7.016 6.06877 5.392C6.06877 5.392 7.07377 5.076 9.36877 6.601C10.3288 6.339 11.3488 6.209 12.3688 6.203C13.3888 6.209 14.4088 6.339 15.3688 6.601C17.6488 5.076 18.6538 5.392 18.6538 5.392C19.2988 7.016 18.8938 8.215 18.7738 8.513C19.5388 9.338 20.0038 10.39 20.0038 11.677C20.0038 16.207 17.1988 17.204 14.5288 17.494C14.9488 17.848 15.3388 18.571 15.3388 19.676C15.3388 21.254 15.3238 22.522 15.3238 22.905C15.3238 23.214 15.5338 23.583 16.1488 23.465C20.9498 21.917 24.3848 17.495 24.3848 12.292C24.3848 5.78 19.0118 0.5 12.3848 0.5Z" fill="#666666"/>
</g>
<defs>
<clipPath id="clip0">
<rect width="24" height="24" fill="white" transform="translate(0.384766)"/>
</clipPath>
</defs>
</svg>
