<svg width="24" height="24" viewBox="0 0 24 24" fill="none" xmlns="http://www.w3.org/2000/svg">
<path d="M0.779348 22.962H3.89939C4.32983 22.962 4.67873 22.613 4.67873 22.1826V8.54497C4.67873 8.11449 4.32983 7.76563 3.89939 7.76563H0.779348C0.348861 7.76562 0 8.11449 0 8.54497V22.1826C0 22.613 0.348861 22.962 0.779348 22.962Z" fill="#999999"/>
<path d="M0.779348 5.36788H3.89939C4.32983 5.36788 4.67873 5.01898 4.67873 4.58853V1.81792C4.67873 1.38748 4.32983 1.03857 3.89939 1.03857H0.779348C0.348861 1.03857 0 1.38748 0 1.81792V4.58853C0 5.01898 0.348861 5.36788 0.779348 5.36788Z" fill="#999999"/>
<path d="M22.8267 9.34718C22.3882 8.77007 21.7417 8.29547 20.8869 7.92347C20.0321 7.55172 19.0886 7.36572 18.0562 7.36572C15.9605 7.36572 14.1848 8.16552 12.7289 9.76542C12.4392 10.0838 12.2286 10.0142 12.2286 9.58367V8.54473C12.2286 8.11424 11.8797 7.76538 11.4492 7.76538H8.66216C8.23167 7.76538 7.88281 8.11424 7.88281 8.54473V22.1824C7.88281 22.6128 8.23172 22.9617 8.66216 22.9617H11.7822C12.2127 22.9617 12.5615 22.6128 12.5615 22.1824V17.4395C12.5615 15.4637 12.6809 14.1094 12.9195 13.3768C13.158 12.6442 13.5994 12.0559 14.2432 11.6119C14.8871 11.1679 15.6141 10.9457 16.4245 10.9457C17.0572 10.9457 17.5984 11.1012 18.048 11.4121C18.4976 11.7229 18.8223 12.1584 19.0221 12.7191C19.222 13.2797 19.3219 14.5146 19.3219 16.424V22.1823C19.3219 22.6128 19.6708 22.9617 20.1012 22.9617H23.2212C23.6517 22.9617 24.0005 22.6128 24.0005 22.1823V14.4591C24.0005 13.0938 23.9145 12.0448 23.7426 11.3122C23.5707 10.5796 23.2654 9.92459 22.8267 9.34718Z" fill="#999999"/>
</svg>
