<svg width="24" height="24" viewBox="0 0 24 24" fill="none" xmlns="http://www.w3.org/2000/svg">
<path d="M0.779348 22.962H3.89939C4.32983 22.962 4.67873 22.613 4.67873 22.1826V8.54497C4.67873 8.11449 4.32983 7.76563 3.89939 7.76563H0.779348C0.348861 7.76562 0 8.11449 0 8.54497V22.1826C0 22.613 0.348861 22.962 0.779348 22.962Z" fill="#666666"/>
<path d="M0.779348 5.36788H3.89939C4.32983 5.36788 4.67873 5.01898 4.67873 4.58853V1.81792C4.67873 1.38748 4.32983 1.03857 3.89939 1.03857H0.779348C0.348861 1.03857 0 1.38748 0 1.81792V4.58853C0 5.01898 0.348861 5.36788 0.779348 5.36788Z" fill="#666666"/>
<path d="M22.8262 9.34718C22.3877 8.77007 21.7413 8.29547 20.8864 7.92347C20.0316 7.55172 19.0881 7.36572 18.0557 7.36572C15.9601 7.36572 14.1843 8.16552 12.7284 9.76542C12.4388 10.0838 12.2281 10.0142 12.2281 9.58367V8.54473C12.2281 8.11424 11.8792 7.76538 11.4487 7.76538H8.66167C8.23119 7.76538 7.88232 8.11424 7.88232 8.54473V22.1824C7.88232 22.6128 8.23123 22.9617 8.66167 22.9617H11.7817C12.2122 22.9617 12.5611 22.6128 12.5611 22.1824V17.4395C12.5611 15.4637 12.6804 14.1094 12.919 13.3768C13.1575 12.6442 13.5989 12.0559 14.2427 11.6119C14.8866 11.1679 15.6136 10.9457 16.424 10.9457C17.0567 10.9457 17.5979 11.1012 18.0475 11.4121C18.4971 11.7229 18.8218 12.1584 19.0217 12.7191C19.2215 13.2797 19.3214 14.5146 19.3214 16.424V22.1823C19.3214 22.6128 19.6703 22.9617 20.1007 22.9617H23.2208C23.6512 22.9617 24.0001 22.6128 24.0001 22.1823V14.4591C24.0001 13.0938 23.914 12.0448 23.7421 11.3122C23.5702 10.5796 23.2649 9.92459 22.8262 9.34718Z" fill="#666666"/>
</svg>
