<svg width="25" height="24" viewBox="0 0 25 24" fill="none" xmlns="http://www.w3.org/2000/svg">
<g clip-path="url(#clip0)">
<path d="M22.2393 4.733L24.1543 2.901V2.5H17.5203L12.7923 14.268L7.4133 2.5H0.457297V2.901L2.6943 5.594C2.9123 5.793 3.0263 6.084 2.9973 6.377V16.96C3.0663 17.341 2.9423 17.733 2.6743 18.01L0.154297 21.064V21.46H7.2993V21.059L4.7793 18.01C4.5063 17.732 4.3773 17.347 4.4323 16.96V7.806L10.7043 21.465H11.4333L16.8263 7.806V18.687C16.8263 18.974 16.8263 19.033 16.6383 19.221L14.6983 21.098V21.5H24.1103V21.099L22.2403 19.268C22.0763 19.144 21.9913 18.936 22.0263 18.734V5.267C21.9913 5.064 22.0753 4.856 22.2393 4.733Z" fill="#666666"/>
</g>
<defs>
<clipPath id="clip0">
<rect width="24" height="24" fill="white" transform="translate(0.154297)"/>
</clipPath>
</defs>
</svg>
