<svg width="24" height="24" viewBox="0 0 24 24" fill="none" xmlns="http://www.w3.org/2000/svg">
<g clip-path="url(#clip0)">
<path d="M23.9523 4.57011C23.054 4.96499 22.1026 5.22578 21.1285 5.34411C22.1553 4.72784 22.924 3.76037 23.2923 2.62086C22.3211 3.18412 21.2641 3.58418 20.1633 3.80511C19.4231 3.01421 18.4425 2.48971 17.3738 2.31299C16.305 2.13627 15.2078 2.31721 14.2524 2.82774C13.297 3.33827 12.5368 4.14985 12.0897 5.13655C11.6426 6.12326 11.5337 7.22993 11.7798 8.28486C7.69005 8.09361 4.06455 6.12861 1.6398 3.16011C1.1984 3.91078 0.967553 4.76656 0.971547 5.63736C0.970945 6.44689 1.17025 7.24403 1.55178 7.95801C1.9333 8.67199 2.48523 9.28071 3.15855 9.73011C2.37827 9.70653 1.61498 9.49642 0.932547 9.11736V9.17661C0.932309 10.3129 1.32495 11.4143 2.04394 12.2941C2.76292 13.174 3.76401 13.7782 4.87755 14.0044C4.45574 14.1171 4.02115 14.1748 3.58455 14.1761C3.2688 14.1761 2.9673 14.1454 2.66655 14.0899C2.98344 15.0677 3.5973 15.9223 4.42268 16.5349C5.24805 17.1475 6.24388 17.4875 7.27155 17.5076C5.53035 18.8712 3.38189 19.611 1.1703 19.6084C0.778576 19.6099 0.387118 19.5879 -0.00195312 19.5424C2.25411 20.988 4.87782 21.7554 7.5573 21.7534C16.6075 21.7534 21.553 14.2571 21.553 7.76511C21.553 7.55811 21.553 7.34736 21.5373 7.13586C22.5047 6.44252 23.3384 5.57958 23.998 4.58886L23.9523 4.57011Z" fill="#999999"/>
</g>
<defs>
<clipPath id="clip0">
<rect width="24" height="24" fill="white"/>
</clipPath>
</defs>
</svg>
